<svg xmlns="http://www.w3.org/2000/svg" width="26" height="24">
    <path fill="#EF5B70" fill-rule="evenodd" d="M25.918 6.26l-4.392 10.272c-.161.359-.497.587-.882.587H8.575c-.433 0-.818-.294-.93-.717L3.718 1.956H.961C.432 1.956 0 1.516 0 .977c0-.538.432-.978.961-.978H4.44c.432 0 .817.294.929.718l3.927 14.445h10.707l3.558-8.315H11.7c-.529 0-.961-.44-.961-.978s.432-.978.961-.978h13.336c.321 0 .625.163.801.44.177.277.209.619.081.929zM7.661 19.564c1.202 0 2.18.996 2.18 2.218 0 1.223-.978 2.217-2.18 2.217-1.202 0-2.18-.994-2.18-2.217s.978-2.218 2.18-2.218zm13.48 0c1.202-.081 2.244.848 2.324 2.055.032.603-.144 1.174-.529 1.614-.384.456-.913.718-1.491.766h-.16c-1.138 0-2.083-.913-2.164-2.07-.08-1.207.818-2.283 2.02-2.365z"/>
</svg>
