<svg xmlns="http://www.w3.org/2000/svg" width="40" height="40">
    <path fill="#F16D7F" fill-rule="evenodd" d="M36.584 17.028l3.412 2.971-3.412 2.974 2.209 3.973-4.211 1.604.734 4.503-4.496.046-.821 4.49-4.24-1.517-2.289 3.93-3.471-2.904-3.472 2.904-2.289-3.93-4.24 1.516-.821-4.49-4.495-.045.732-4.506-4.209-1.602 2.21-3.974-3.412-2.972 3.412-2.973-2.21-3.974 4.21-1.603-.733-4.504 4.495-.044.822-4.49 4.24 1.515 2.289-3.929L20 2.901l3.472-2.904 2.289 3.929 4.241-1.514.82 4.489 4.495.046-.732 4.503 4.209 1.603-2.21 3.975zm-2.665-3.776l-1.459-.556.255-1.562.372-2.286-2.283-.024-1.56-.016-.285-1.557-.417-2.279-2.152.769-1.468.523-.793-1.359-1.162-1.994-1.762 1.473-1.206 1.008-1.205-1.008-1.762-1.473-1.161 1.993-.793 1.36-1.468-.524-2.151-.769-.418 2.279-.285 1.557-1.56.016-2.282.023.372 2.287.254 1.561-1.46.557-2.135.812 1.121 2.015.767 1.377-1.183 1.031-1.735 1.511 1.734 1.51 1.183 1.031-.767 1.378-1.12 2.015 2.133.811 1.46.557-.255 1.562-.371 2.289 2.282.022 1.56.016.286 1.559.416 2.277 2.153-.769 1.468-.524.793 1.361 1.162 1.993 1.762-1.473 1.205-1.008 1.206 1.008 1.762 1.473 1.161-1.993.792-1.36 1.469.524 2.151.77.417-2.278.285-1.558 1.561-.016 2.282-.022-.372-2.287-.254-1.562 1.46-.556 2.134-.815-1.121-2.014-.766-1.378 1.183-1.03 1.734-1.513-1.733-1.508-1.184-1.031.767-1.379 1.121-2.015-2.135-.812zm-9.248 14.174c-1.783 0-3.327-1.452-3.348-4.362 0-2.932 1.565-4.563 3.459-4.563 2.007 0 3.306 1.566 3.305 4.338 0 3.066-1.585 4.587-3.416 4.587zm.046-7.739c-1.212 0-1.873 1.454-1.873 3.289-.022 1.856.683 3.265 1.873 3.265 1.277 0 1.849-1.388 1.849-3.309 0-1.769-.506-3.245-1.849-3.245zm-9.518 7.7l8.416-14.749h1.233l-8.416 14.749h-1.233zm.132-5.98c-1.784 0-3.326-1.454-3.348-4.383 0-2.908 1.563-4.542 3.458-4.542 2.005 0 3.327 1.568 3.327 4.341 0 3.064-1.586 4.584-3.437 4.584zm.044-7.738c-1.209 0-1.85 1.453-1.85 3.288-.044 1.856.641 3.265 1.85 3.266 1.278 0 1.851-1.387 1.851-3.31 0-1.768-.507-3.244-1.851-3.244z"/>
</svg>
