<svg xmlns="http://www.w3.org/2000/svg" width="45" height="32">
    <path fill="#F16D7F" fill-rule="evenodd" d="M44.071 27.297h-2.815c-.444 2.665-2.738 4.702-5.495 4.702s-5.051-2.037-5.495-4.702H14.784c-.443 2.665-2.738 4.702-5.494 4.702-2.757 0-5.052-2.037-5.496-4.702H1.857C.833 27.297 0 26.453 0 25.417V1.879C0 .843.833-.001 1.857-.001h25.558c1.024 0 1.857.844 1.857 1.88v1.91h7.123c.082 0 .161.011.237.031 2.306.203 3.458 1.408 4.679 3.47l3.56 6.106c.084.145.129.31.129.478v12.483c0 .519-.416.94-.929.94zM9.29 30.119c2.049 0 3.716-1.687 3.716-3.762s-1.667-3.763-3.716-3.763c-2.05 0-3.717 1.688-3.717 3.763s1.667 3.762 3.717 3.762zm18.125-28.24H1.857v23.538h1.937c.444-2.665 2.738-4.703 5.496-4.703 2.757 0 5.051 2.038 5.494 4.703h12.631V1.879zm8.346 28.24c2.049 0 3.717-1.687 3.717-3.762s-1.668-3.763-3.717-3.763c-2.049 0-3.717 1.688-3.717 3.763s1.668 3.762 3.717 3.762zM39.819 8.43h-6.9v3.766c0 .529.425.96.947.96.065 0 .128.006.19.019h8.53L39.819 8.43zm3.324 7.628h-.88c-.512 0-.928.422-.928.94v.91h1.808v-1.85zm0 3.73h-2.737c-.513 0-.928-.421-.928-.94v-1.851c0-.752.293-1.436.769-1.942h-6.381c-.079 0-.156-.01-.23-.029-1.439-.119-2.574-1.342-2.574-2.83V7.49c0-.519.415-.94.928-.94h6.485c-.653-.628-1.393-.881-2.578-.881h-6.625v19.748h.994c.443-2.665 2.738-4.703 5.495-4.703s5.051 2.038 5.495 4.703h1.887v-5.629zm-7.382 3.785c.513 0 .929.422.929.94 0 .519-.416.94-.929.94-.492 0-.893.406-.893.904s.401.904.893.904.892-.406.892-.904c0-.519.416-.94.929-.94.513 0 .928.421.928.94 0 1.534-1.233 2.783-2.749 2.783s-2.75-1.249-2.75-2.783c0-1.535 1.234-2.784 2.75-2.784zM3.753 4.729c0-.519.415-.94.928-.94h19.91c.512 0 .928.421.928.94 0 .519-.416.94-.928.94H4.681c-.513 0-.928-.421-.928-.94zM9.29 23.573c.512 0 .928.422.928.94 0 .519-.416.94-.928.94-.493 0-.893.406-.893.904s.4.904.893.904c.491 0 .892-.406.892-.904 0-.519.415-.94.928-.94.513 0 .929.421.929.94 0 1.534-1.233 2.783-2.749 2.783-1.517 0-2.75-1.249-2.75-2.783 0-1.535 1.233-2.784 2.75-2.784z"/>
</svg>
